<?xml version="1.0" encoding="UTF-8"?>
<svg id="uuid-97aa5e3d-b64a-47ac-bcf8-b71e34586d67" data-name="Layer 2" xmlns="http://www.w3.org/2000/svg" width="69.2mm" height="14mm" xmlns:xlink="http://www.w3.org/1999/xlink" viewBox="0 0 196 39.7">
  <defs>
    <style>
      .uuid-1c5baee3-ce3c-4bef-818b-6dc298bd64f2 {
        fill: #69709e;
      }

      .uuid-71de999d-a57c-4246-86ea-9ca5b0638b59 {
        fill: none;
      }

      .uuid-12ec5a42-791a-460d-9202-42e75a203d8d {
        clip-path: url(#uuid-45aacc47-870f-4a26-9235-3409bbbb96d2);
      }
    </style>
    <clipPath id="uuid-45aacc47-870f-4a26-9235-3409bbbb96d2">
      <rect class="uuid-71de999d-a57c-4246-86ea-9ca5b0638b59" width="196" height="39.7"/>
    </clipPath>
  </defs>
  <g id="uuid-52f1852f-2a58-468c-9973-ea782af44c12" data-name="Capa 1">
    <g class="uuid-12ec5a42-791a-460d-9202-42e75a203d8d">
      <g>
        <path class="uuid-1c5baee3-ce3c-4bef-818b-6dc298bd64f2" d="M72.6,39.4c-3.5,0-6.4-2.9-6.4-6.5V10.6h21.9c3.5,0,6.4,2.9,6.4,6.5v22.3h-21.9Zm15.3-6.7v-15.4h-15.1v15.4h15.1Z"/>
        <path class="uuid-1c5baee3-ce3c-4bef-818b-6dc298bd64f2" d="M148.8,39.7c-3.5,0-6.4-2.9-6.4-6.5V10.9h21.9c3.5,0,6.4,2.9,6.4,6.5v11.2h-21.7v4.3h21.7v6.7h-21.9Zm15.3-17.8v-4.3h-15.1v4.3h15.1Z"/>
        <path class="uuid-1c5baee3-ce3c-4bef-818b-6dc298bd64f2" d="M174,39.7V17.4c0-3.6,2.9-6.5,6.4-6.5h15.7v6.7h-15.5v22.1h-6.6Z"/>
        <path class="uuid-1c5baee3-ce3c-4bef-818b-6dc298bd64f2" d="M126.7,0h-6.6V7.6h6.6V0Z"/>
        <path class="uuid-1c5baee3-ce3c-4bef-818b-6dc298bd64f2" d="M126.5,39.7c-3.5,0-6.4-2.9-6.4-6.5V10.9h19v6.7h-12.4v15.4h12.4v6.7h-12.6Z"/>
        <path class="uuid-1c5baee3-ce3c-4bef-818b-6dc298bd64f2" d="M104.4,0h-6.6V7.6h6.6V0Z"/>
        <path class="uuid-1c5baee3-ce3c-4bef-818b-6dc298bd64f2" d="M104.2,39.7c-3.5,0-6.4-2.9-6.4-6.5V10.9h19v6.7h-12.4v15.4h12.4v6.7h-12.6Z"/>
        <path class="uuid-1c5baee3-ce3c-4bef-818b-6dc298bd64f2" d="M40.9,39.7V17.4c0-3.6,2.9-6.5,6.4-6.5h15.7v6.7h-15.5v22.1h-6.6Z"/>
        <path class="uuid-1c5baee3-ce3c-4bef-818b-6dc298bd64f2" d="M15.5,39.7V10.9H0V4.2H15.7c3.5,0,6.4,2.9,6.4,6.5v29h-6.6Z"/>
        <path class="uuid-1c5baee3-ce3c-4bef-818b-6dc298bd64f2" d="M15.5,39.7V10.7c0-3.6,2.9-6.5,6.4-6.5h15.7v6.7h-15.5v28.8h-6.6Z"/>
      </g>
    </g>
  </g>
</svg>