<svg width="139" height="28" viewBox="0 0 139 28" fill="none" xmlns="http://www.w3.org/2000/svg">
<g clip-path="url(#clip0_1940_645)">
<path d="M51.1685 27.7682C48.6856 27.7682 46.668 25.7088 46.668 23.1746V7.4668H62.0887C64.5716 7.4668 66.5892 9.52616 66.5892 12.0604V27.7682H51.1685ZM61.9455 23.0239V12.2065H51.3161V23.0239H61.9455Z" fill="#676F9D"/>
<path d="M104.852 27.9996C102.369 27.9996 100.352 25.9402 100.352 23.406V7.69824H115.772C118.255 7.69824 120.273 9.7576 120.273 12.2918V20.2188H104.995V23.2553H120.273V27.9996H104.852ZM115.629 15.4791V12.4425H105V15.4791H115.629Z" fill="#676F9D"/>
<path d="M122.598 27.9996V12.2918C122.598 9.7576 124.615 7.69824 127.098 7.69824H138.135V12.4425H127.246V27.9996H122.598Z" fill="#676F9D"/>
<path d="M89.2849 0H84.6367V5.33333H89.2849V0Z" fill="#676F9D"/>
<path d="M89.1372 27.9996C86.6543 27.9996 84.6367 25.9403 84.6367 23.406V7.69824H98.0309V12.4425H89.2849V23.2599H98.0309V28.0042H89.1372V27.9996Z" fill="#676F9D"/>
<path d="M73.57 0H68.9219V5.33333H73.57V0Z" fill="#676F9D"/>
<path d="M73.4224 27.9996C70.9395 27.9996 68.9219 25.9403 68.9219 23.406V7.69824H82.316V12.4425H73.57V23.2599H82.316V28.0042H73.4224V27.9996Z" fill="#676F9D"/>
<path d="M28.8203 27.9996V12.2918C28.8203 9.7576 30.8379 7.69824 33.3208 7.69824H44.3574V12.4425H33.4684V27.9996H28.8203Z" fill="#676F9D"/>
<path d="M10.9247 28.0001V7.69871H0V2.95898H11.0678C13.5507 2.95898 15.5684 5.01835 15.5684 7.55259V28.0001H10.9202H10.9247Z" fill="#676F9D"/>
<path d="M10.9263 28.0001V7.55259C10.9263 5.01835 12.944 2.95898 15.4269 2.95898H26.4947V7.70328H15.57V28.0046H10.9219L10.9263 28.0001Z" fill="#676F9D"/>
</g>
<defs>
<clipPath id="clip0_1940_645">
<rect width="138.133" height="28" fill="white"/>
</clipPath>
</defs>
</svg>
